<?xml version="1.0" encoding="UTF-8" standalone="no"?>
<!DOCTYPE svg PUBLIC "-//W3C//DTD SVG 1.1//EN" "http://www.w3.org/Graphics/SVG/1.1/DTD/svg11.dtd">
<svg width="100%" height="100%" viewBox="0 0 70 64" version="1.1" xmlns="http://www.w3.org/2000/svg" xmlns:xlink="http://www.w3.org/1999/xlink" xml:space="preserve" xmlns:serif="http://www.serif.com/" style="fill-rule:evenodd;clip-rule:evenodd;stroke-linejoin:round;stroke-miterlimit:1.41421;">
    <g transform="matrix(1,0,0,1,-295.757,-98.9471)">
        <path d="M312.364,126.466C312.364,126.466 308.046,131.825 309.485,136.383C310.924,140.941 312.045,142.46 312.045,142.46C312.045,142.46 307.725,140.981 304.406,143.78C304.406,143.78 300.805,139.862 297.646,143.421C297.646,143.421 293.767,147.979 297.126,158.056C297.126,158.056 299.125,162.694 302.724,161.694C302.724,161.694 304.643,161.174 305.483,159.735C305.483,159.735 309.082,159.495 310.601,158.694C312.121,157.895 313.84,159.055 314.6,159.534C315.36,160.014 323.755,163.093 331.593,162.293C339.43,161.493 348.747,159.454 351.705,160.054C354.664,160.654 353.825,162.333 356.784,162.613C359.743,162.893 364.66,158.817 365.62,152.418C365.62,152.418 366.58,144.261 360.822,143.541C360.822,143.541 358.763,143.721 357.763,144.281C357.763,144.281 357.323,143.861 355.524,144.581C355.524,144.581 354.245,141.382 351.066,141.642C351.066,141.642 349.406,141.802 348.566,142.402C348.566,142.402 351.003,136.804 348.603,133.045C348.603,133.045 345.524,124.369 343.364,122.77C341.205,121.17 336.487,121.09 336.487,121.09C336.487,121.09 319.772,116.213 312.364,126.466" style="fill:rgb(120,79,46);"/>
    </g>
    <g transform="matrix(1,0,0,1,-295.757,-72.8242)">
        <path d="M306.846,127.611C306.388,128.326 305.653,129.035 305.124,129.512C300.044,134.09 298.047,121.498 300.408,117.542C295.77,120.662 297.132,128.937 297.132,128.937C298.382,135.642 303.05,134.295 303.05,134.295C305.727,133.155 306.577,129.765 306.846,127.611" style="fill:rgb(186,148,112);"/>
    </g>
    <g transform="matrix(1,0,0,1,-295.757,-64.6576)">
        <path d="M305.483,125.445C305.483,125.445 309.082,125.205 310.601,124.405C312.121,123.605 313.84,124.766 314.6,125.245C315.36,125.725 323.755,128.804 331.593,128.004C339.43,127.204 348.746,125.165 351.705,125.765C352.848,125.996 353.424,126.389 353.871,126.8C353.903,126.369 353.954,126.102 353.954,126.102C353.519,124.354 353.377,122.691 353.413,121.169C352.368,120.767 350.736,120.011 350.106,119.012C349.146,117.493 349.066,116.213 344.588,119.972C340.11,123.73 328.994,123.571 328.994,123.571C317.318,123.091 310.463,116.973 310.463,116.973C308.784,119.392 307.145,118.873 307.145,118.873C307.106,118.971 307.06,119.07 307.006,119.17C307,124.608 305.483,125.445 305.483,125.445" style="fill:rgb(79,46,23);fill-opacity:0.501961;"/>
    </g>
    <g transform="matrix(1,0,0,1,-295.757,-62.5452)">
        <path d="M296.995,121.251C297.037,121.384 297.08,121.518 297.126,121.654C297.08,121.518 297.037,121.384 296.995,121.251" style="fill:rgb(79,46,23);fill-opacity:0.501961;"/>
    </g>
    <g transform="matrix(1,0,0,1,-295.757,-59.9053)">
        <path d="M305.483,120.693C305.483,120.693 309.082,120.453 310.601,119.653C312.121,118.853 313.84,120.013 314.6,120.492C314.958,120.719 317.017,121.524 319.915,122.227C318.672,121.914 315.564,119.831 314.299,119.218C313.019,118.598 311.479,118.038 309.68,118.978C307.88,119.918 305.483,120.693 305.483,120.693" style="fill:rgb(186,148,112);"/>
    </g>
    <g transform="matrix(1,0,0,1,-295.757,-75.6982)">
        <path d="M304.604,120.371C304.538,120.423 304.471,120.476 304.406,120.531C304.406,120.531 300.805,116.613 297.646,120.172C297.646,120.172 293.767,124.73 297.126,134.807C297.126,134.807 299.125,139.445 302.724,138.445C302.724,138.445 304.643,137.925 305.483,136.486C305.483,136.486 307.288,135.49 306.969,128.613C306.969,128.613 307.089,135.45 303.05,137.169C303.05,137.169 298.382,138.516 297.132,131.811C297.132,131.811 295.73,125.654 297.809,121.376C297.809,121.376 298.774,118.978 301.448,119.616C301.448,119.616 304.688,119.856 306.494,127.353C306.494,127.353 306.134,123.954 305.294,121.595C305.294,121.595 307.374,117.876 312.212,120.515C312.212,120.515 310.852,118.975 308.933,118.935C307.014,118.895 304.874,120.915 304.874,120.915L304.604,120.371Z" style="fill:rgb(99,61,33);"/>
    </g>
    <g transform="matrix(1,0,0,1,-295.757,-56.3765)">
        <path d="M317.758,115.329C317.758,115.329 319.598,118.848 331.793,118.768C331.793,118.768 339.23,118.488 342.789,115.329C342.789,115.329 331.033,121.407 317.758,115.329" style="fill:rgb(186,148,112);"/>
    </g>
    <g transform="matrix(1,0,0,1,-295.757,-87.9802)">
        <path d="M318.549,117.706L317.601,118.104L317.838,135.858L322.479,147.577C322.479,147.577 323.694,150.634 327.085,148.521C327.085,148.521 334.761,139.709 337.457,138.307C340.153,136.905 340.813,131.692 340.813,131.692L341.184,124.439L342.04,120.228C342.04,120.228 332.07,124.346 327.186,128.627C327.186,128.627 325.89,127.426 322.874,128.04L318.549,117.706Z" style="fill:rgb(252,201,0);"/>
    </g>
    <g transform="matrix(1,0,0,1,-295.757,-111.07)">
        <path d="M318.784,141.356L321.71,140.3L322.874,151.13L318.784,141.356Z" style="fill:rgb(255,245,214);"/>
    </g>
    <g transform="matrix(1,0,0,1,-295.757,-111.943)">
        <path d="M322.874,152.003L322.674,140.944C322.674,140.944 326.431,140.3 329.474,140.673L324.435,151.828C323.976,151.832 323.458,151.884 322.874,152.003" style="fill:rgb(255,245,214);"/>
    </g>
    <g transform="matrix(1,0,0,1,-295.757,-110.919)">
        <path d="M324.435,150.805L331.371,139.713C331.371,139.713 334.827,139.948 338.02,141.734L327.149,150.025L339.309,142.16C339.309,142.16 340.418,142.847 341.023,143.604C338.361,144.772 331.122,148.116 327.186,151.566C327.186,151.566 326.343,150.785 324.435,150.805" style="fill:rgb(255,245,214);"/>
    </g>
    <g transform="matrix(1,0,0,1,-295.757,-152.323)">
        <ellipse cx="329.369" cy="166.342" rx="14.79" ry="14.018" style="fill:rgb(120,79,46);"/>
    </g>
    <g transform="matrix(1,0,0,1,-295.757,-148.154)">
        <path d="M333.762,175.562C332.374,175.97 330.898,176.191 329.368,176.191C325.311,176.191 321.635,174.642 318.962,172.133C318.857,171.997 313.988,165.624 321.792,161.68C321.792,161.68 318.405,155.807 323.849,153.191C323.849,153.191 325.703,152.323 327.975,153.845C327.975,153.845 328.361,154.274 329.583,153.995C330.805,153.717 332.176,152.902 333.72,153.352C335.263,153.802 337.599,154.917 337.557,158.132C337.557,158.132 337.47,160.661 335.113,162.162C335.113,162.162 339.529,164.691 338.8,169.45C338.8,169.45 338.668,173.144 333.762,175.562" style="fill:rgb(255,214,176);"/>
    </g>
    <g transform="matrix(1,0,0,1,-295.757,-155.624)">
        <path d="M314.107,162.955C314.826,162.955 315.51,163.112 316.126,163.395C315.137,165.276 314.579,167.397 314.579,169.642C314.579,170.781 314.723,171.887 314.993,172.948C314.706,173.001 314.41,173.029 314.107,173.029C311.385,173.029 309.177,170.773 309.177,167.992C309.177,165.21 311.385,162.955 314.107,162.955" style="fill:rgb(120,79,46);"/>
    </g>
    <g transform="matrix(1,0,0,1,-295.757,-156.14)">
        <path d="M315.714,164.763C315.038,164.386 313.437,163.749 311.61,164.8C311.61,164.8 310.11,165.7 310.496,166.879C310.881,168.058 309.874,168.679 309.917,169.451C309.959,170.223 310.679,172.578 314.831,172.751L314.831,172.748C314.666,171.909 314.579,171.043 314.579,170.158C314.579,168.246 314.983,166.424 315.714,164.763" style="fill:rgb(255,214,176);"/>
    </g>
    <g transform="matrix(1,0,0,1,-295.757,-155.624)">
        <path d="M344.6,162.955C343.88,162.955 343.198,163.112 342.581,163.395C343.571,165.276 344.128,167.397 344.128,169.642C344.128,170.781 343.984,171.887 343.714,172.948C344.001,173.001 344.297,173.029 344.6,173.029C347.323,173.029 349.53,170.773 349.53,167.992C349.53,165.21 347.323,162.955 344.6,162.955" style="fill:rgb(120,79,46);"/>
    </g>
    <g transform="matrix(1,0,0,1,-295.757,-159.782)">
        <ellipse cx="324.331" cy="170.071" rx="1.286" ry="2.004" style="fill:rgb(15,15,18);"/>
    </g>
    <g transform="matrix(1,0,0,1,-295.757,-156.14)">
        <path d="M342.993,164.763C343.67,164.386 345.27,163.749 347.097,164.8C347.097,164.8 348.597,165.7 348.212,166.879C347.825,168.058 348.833,168.679 348.791,169.451C348.747,170.223 348.028,172.578 343.876,172.751L343.875,172.748C344.041,171.909 344.128,171.043 344.128,170.158C344.128,168.246 343.724,166.424 342.993,164.763" style="fill:rgb(255,214,176);"/>
    </g>
    <g transform="matrix(1,0,0,1,-295.757,-160.252)">
        <path d="M324.331,168.537C325.041,168.537 325.617,169.434 325.617,170.54L325.617,170.577C325.394,171.463 324.781,172.075 324.138,171.994C323.579,171.923 323.159,171.35 323.046,170.599L323.045,170.54C323.045,169.434 323.621,168.537 324.331,168.537" style="fill:rgb(99,61,33);"/>
    </g>
    <g transform="matrix(1,0,0,1,-295.757,-160.886)">
        <path d="M324.331,169.171C324.957,169.171 325.477,169.866 325.593,170.787C325.504,171.516 324.985,172.075 324.358,172.075C323.669,172.075 323.11,171.398 323.11,170.564L323.11,170.547C323.278,169.747 323.762,169.171 324.331,169.171"/>
    </g>
    <g transform="matrix(1,0,0,1,-295.757,-159.013)">
        <path d="M333.352,167.696C334.057,167.899 334.373,168.955 334.056,170.054C333.74,171.153 332.911,171.88 332.206,171.677C331.501,171.474 331.185,170.418 331.502,169.319C331.818,168.219 332.647,167.493 333.352,167.696" style="fill:rgb(15,15,18);"/>
    </g>
    <g transform="matrix(1,0,0,1,-295.757,-159.62)">
        <path d="M333.352,168.303C334.057,168.507 334.373,169.562 334.056,170.661C334.019,170.791 333.974,170.916 333.924,171.034C333.407,171.624 332.703,171.88 332.151,171.614C331.64,171.369 331.396,170.743 331.471,170.039C331.481,170.002 331.491,169.964 331.502,169.926C331.818,168.827 332.647,168.1 333.352,168.303" style="fill:rgb(99,61,33);"/>
    </g>
    <g transform="matrix(1,0,0,1,-295.757,-160.181)">
        <path d="M333.352,168.865C333.932,169.032 334.248,169.774 334.166,170.644C333.722,171.426 332.932,171.826 332.342,171.541C331.785,171.274 331.592,170.49 331.85,169.702C332.249,169.068 332.833,168.716 333.352,168.865"/>
    </g>
    <g transform="matrix(-0.105672,0.994401,0.994401,0.105672,-98.5533,-332.482)">
        <path d="M329.982,162.811C329.976,162.823 327.985,167.191 329.615,172.797L329.982,172.69C328.392,167.22 330.325,162.977 330.331,162.965L329.982,162.811Z" style="fill-rule:nonzero;"/>
    </g>
    <g transform="matrix(-0.64132,0.767274,0.767274,0.64132,113.96,-339.646)">
        <path d="M326.58,163.165C326.578,163.167 325.603,164.072 326.24,165.321L326.58,165.147C326.074,164.155 326.837,163.448 326.839,163.445L326.58,163.165Z" style="fill-rule:nonzero;"/>
    </g>
    <g transform="matrix(0.261054,0.965324,0.965324,-0.261054,-210.561,-259.323)">
        <path d="M330.066,163.094C330.063,163.095 328.977,163.676 329.722,165.236L330.066,165.071C329.479,163.839 330.25,163.429 330.252,163.428L330.066,163.094Z" style="fill-rule:nonzero;"/>
    </g>
    <g transform="matrix(1,0,0,1,-295.757,-135.674)">
        <path d="M320.3,154.681C320.302,154.696 321.091,159.722 327.585,160.225L327.593,160.226C327.608,160.228 332.816,160.936 335.329,155.619L335.674,155.782C333.042,161.353 327.564,160.608 327.548,160.606C320.76,160.076 319.925,154.762 319.923,154.747L320.3,154.681Z" style="fill-rule:nonzero;"/>
    </g>
    <g transform="matrix(1,0,0,1,-295.757,-140.441)">
        <path d="M335.056,159.801C335.083,159.818 335.134,159.845 335.197,159.877C335.515,160.043 336.131,160.362 336.386,160.813L336.053,161C335.855,160.65 335.306,160.364 335.023,160.217C334.949,160.179 334.891,160.149 334.854,160.126L335.056,159.801Z" style="fill-rule:nonzero;"/>
    </g>
    <g transform="matrix(0.13527,0.990809,0.990809,-0.13527,-178.703,-276.549)">
        <path d="M320.352,160.661C320.351,160.663 319.885,161.247 319.973,162.148L320.352,162.11C320.28,161.366 320.643,160.909 320.644,160.908L320.352,160.661Z" style="fill-rule:nonzero;"/>
    </g>
    <g transform="matrix(1,0,0,1,-295.757,-162.258)">
        <ellipse cx="324.449" cy="171.309" rx="0.354" ry="0.445" style="fill:rgb(240,232,240);"/>
    </g>
    <g transform="matrix(1,0,0,1,-295.757,-161.787)">
        <path d="M333.258,170.64C333.449,170.684 333.559,170.913 333.504,171.153C333.449,171.392 333.25,171.55 333.06,171.507C332.869,171.463 332.759,171.234 332.814,170.994C332.869,170.755 333.068,170.596 333.258,170.64" style="fill:rgb(240,232,240);"/>
    </g>
    <g transform="matrix(1,0,0,1,-295.757,-87.5709)">
        <path d="M341.023,120.255C338.361,121.423 331.122,124.767 327.186,128.218L327.095,146.192L327.085,148.112C327.085,148.112 327.783,147.31 328.833,146.151C331.263,143.47 335.575,138.877 337.457,137.898C337.806,137.716 338.122,137.47 338.406,137.18C340.313,135.231 340.813,131.283 340.813,131.283L341.184,124.03L341.437,122.785L342.04,119.819C342.04,119.819 341.664,119.974 341.023,120.255" style="fill:rgb(252,201,0);"/>
    </g>
    <g transform="matrix(1,0,0,1,-295.757,-92.3793)">
        <path d="M321.947,150.634L322.874,132.439L318.784,122.666L318.549,122.105L317.601,122.503L317.733,132.382L317.74,132.903L317.757,134.198L317.759,134.31L317.775,135.488L317.793,136.849L317.807,137.902L317.821,138.961L317.838,140.258L318.477,141.871L318.737,142.528L321.947,150.634Z" style="fill:rgb(252,201,0);"/>
    </g>
    <g transform="matrix(1,0,0,1,-295.757,-77.8404)">
        <path d="M322.874,117.901L321.947,136.095L322.479,137.438C322.479,137.438 323.694,140.494 327.085,138.381L327.095,136.462L327.186,118.487C327.186,118.487 326.343,117.706 324.435,117.726C323.977,117.73 323.458,117.782 322.874,117.901" style="fill:rgb(255,161,23);"/>
    </g>
    <g transform="matrix(1,0,0,1,-295.757,-73.9784)">
        <path d="M353.871,136.121C354.582,136.773 354.967,137.473 356.784,137.645C359.743,137.925 364.66,133.848 365.62,127.45C365.62,127.45 366.38,120.989 362.488,119.06C362.498,119.074 364.917,122.406 364.757,125.997C364.757,125.997 364.437,133.755 357.879,136.514C357.879,136.514 355.673,137.694 354.956,133.705C354.229,129.292 355.273,123.196 358.155,119.131C358.013,119.186 357.881,119.247 357.763,119.312C357.763,119.312 357.323,118.893 355.524,119.612C355.524,119.612 354.245,116.413 351.066,116.673C351.066,116.673 349.406,116.834 348.566,117.433C348.566,117.433 348.202,118.24 347.242,119.52C347.242,119.52 350.481,116.96 352.281,117.64C354.081,118.32 355.52,122.118 355.52,122.118C352.201,127.856 352.941,131.346 353.871,136.121" style="fill:rgb(99,61,33);"/>
    </g>
    <g transform="matrix(1,0,0,1,-295.757,-72.8594)">
        <path d="M359.678,118.761C359.678,118.761 356.094,121.103 355.745,128.026C355.745,128.026 354.871,133.129 357.389,134.109C357.389,134.109 359.486,134.458 361.688,130.577C361.688,130.577 355.604,130.337 359.678,118.761" style="fill:rgb(255,214,176);fill-opacity:0.501961;"/>
    </g>
    <g transform="matrix(1,0,0,1,-295.757,-94.1847)">
        <path d="M316.961,130.139C317.074,130.093 317.16,130.066 317.205,130.055L317.667,129.946L317.673,130.423C317.695,132.047 317.777,134.142 317.8,134.713C318.557,135.42 320.053,135.612 321.233,135.763C321.67,135.819 322.068,135.87 322.389,135.941C322.905,136.054 323.152,135.897 323.395,135.742C323.706,135.545 324.012,135.351 324.592,135.406C324.97,135.443 325.311,135.617 325.552,135.872C325.73,136.061 325.856,136.297 325.904,136.558C325.952,136.821 325.922,137.104 325.789,137.383C325.615,137.746 325.264,138.105 324.678,138.395C323.603,138.927 322.089,138.751 321.025,138.515C322.342,139.287 324.485,138.722 324.493,138.72L324.619,138.708C324.953,138.735 325.218,138.808 325.423,138.913C325.752,139.082 325.929,139.33 326,139.615C326.064,139.874 326.031,140.15 325.941,140.415C325.832,140.735 325.635,141.047 325.438,141.281C325.105,141.677 324.231,141.791 323.265,141.705C322.829,141.666 322.367,141.59 321.926,141.484C323.271,142.101 324.582,142.791 324.196,143.804C324.098,144.063 323.877,144.257 323.561,144.383C323.15,144.546 322.542,144.599 321.825,144.524C321.135,144.452 320.332,144.264 319.5,143.947C317.289,143.105 314.831,141.34 313.656,138.385C313.481,137.944 313.349,137.526 313.256,137.131C312.714,134.839 313.398,133.184 314.342,132.052C315.275,130.933 316.467,130.335 316.961,130.139ZM316.92,130.993C316.401,131.247 315.592,131.745 314.928,132.54C314.115,133.516 313.527,134.952 314.001,136.958C314.087,137.324 314.207,137.706 314.365,138.103C315.446,140.822 317.722,142.451 319.773,143.232C320.544,143.526 321.278,143.699 321.902,143.764C322.499,143.826 322.981,143.792 323.28,143.674C323.392,143.629 323.462,143.581 323.481,143.532C323.646,143.101 322.4,142.537 321.259,142.02C320.195,141.538 319.203,141.089 319.091,140.482L319.087,140.455C319.087,140.452 318.912,139.287 320.84,140.299L320.842,140.299C321.462,140.625 322.452,140.867 323.33,140.945C324.072,141.011 324.698,140.976 324.855,140.79C324.998,140.621 325.14,140.396 325.217,140.17C325.264,140.033 325.284,139.902 325.258,139.798C325.239,139.72 325.183,139.649 325.073,139.592C324.967,139.537 324.816,139.497 324.614,139.476C324.078,139.602 320.599,140.318 319.533,137.954L319.165,137.136L320.009,137.436C320.017,137.44 322.813,138.466 324.34,137.71C324.755,137.504 324.992,137.275 325.098,137.053C325.158,136.926 325.173,136.805 325.153,136.696C325.133,136.585 325.076,136.482 324.995,136.396C324.877,136.27 324.708,136.185 324.521,136.167C324.204,136.136 324.006,136.262 323.806,136.389C323.432,136.627 323.051,136.868 322.224,136.685C321.936,136.622 321.556,136.573 321.138,136.52C319.783,136.346 318.052,136.124 317.143,135.136L317.043,134.892C317.043,134.885 316.955,132.818 316.92,130.993" style="fill:rgb(120,79,46);fill-rule:nonzero;"/>
    </g>
    <g transform="matrix(1,0,0,1,-295.757,-93.2931)">
        <path d="M317.292,129.536C316.884,129.632 311.777,131.736 314.011,137.352C316.245,142.968 323.328,144.116 323.839,142.776C324.349,141.437 319.642,140.479 319.467,139.522C319.467,139.522 319.387,139.075 320.664,139.745C321.94,140.415 324.636,140.75 325.146,140.144C325.657,139.538 326.168,138.325 324.588,138.197C324.588,138.197 320.903,139.171 319.882,136.905C319.882,136.905 322.833,137.99 324.508,137.16C326.184,136.331 325.546,134.991 324.556,134.895C323.567,134.799 323.535,135.693 322.307,135.422C321.079,135.15 318.509,135.166 317.425,133.985C317.425,133.985 317.317,131.45 317.292,129.536" style="fill:rgb(255,214,176);"/>
    </g>
    <g transform="matrix(1,0,0,1,-295.757,-94.2164)">
        <path d="M342.012,130.248C341.899,130.2 341.815,130.17 341.77,130.158L341.311,130.035L341.291,130.512C341.222,132.134 341.08,134.227 341.041,134.796C340.263,135.482 338.762,135.63 337.578,135.746C337.14,135.79 336.742,135.829 336.418,135.891C335.899,135.99 335.656,135.825 335.417,135.664C335.112,135.457 334.812,135.254 334.231,135.294C333.852,135.319 333.506,135.483 333.258,135.73C333.074,135.914 332.942,136.147 332.887,136.406C332.831,136.668 332.853,136.951 332.978,137.234C333.141,137.602 333.481,137.97 334.059,138.277C335.118,138.84 336.636,138.708 337.707,138.503C336.368,139.237 334.242,138.61 334.235,138.608L334.109,138.592C333.773,138.61 333.506,138.675 333.299,138.774C332.965,138.934 332.781,139.176 332.702,139.459C332.63,139.716 332.655,139.993 332.737,140.26C332.837,140.583 333.025,140.902 333.215,141.14C333.537,141.546 334.407,141.685 335.376,141.627C335.812,141.601 336.276,141.538 336.72,141.445C335.358,142.023 334.027,142.674 334.384,143.699C334.475,143.96 334.689,144.16 335.002,144.295C335.408,144.471 336.015,144.541 336.734,144.486C337.424,144.435 338.233,144.27 339.073,143.977C341.309,143.199 343.816,141.506 345.077,138.586C345.264,138.151 345.408,137.737 345.513,137.345C346.12,135.07 345.484,133.396 344.573,132.236C343.674,131.092 342.499,130.459 342.012,130.248ZM342.028,131.103C342.539,131.372 343.334,131.893 343.973,132.707C344.758,133.707 345.305,135.159 344.773,137.15C344.676,137.514 344.545,137.892 344.376,138.284C343.216,140.971 340.894,142.534 338.822,143.255C338.043,143.526 337.303,143.678 336.678,143.725C336.08,143.77 335.598,143.722 335.303,143.595C335.193,143.547 335.123,143.497 335.106,143.447C334.955,143.012 336.216,142.484 337.371,142.001C338.449,141.549 339.454,141.129 339.582,140.526L339.588,140.499C339.588,140.496 339.797,139.336 337.84,140.292L337.838,140.292C337.208,140.6 336.212,140.813 335.332,140.866C334.588,140.91 333.964,140.858 333.813,140.667C333.675,140.493 333.539,140.265 333.468,140.036C333.426,139.898 333.41,139.766 333.438,139.663C333.459,139.586 333.518,139.516 333.629,139.463C333.737,139.411 333.889,139.374 334.091,139.36C334.623,139.501 338.08,140.318 339.214,137.986L339.606,137.179L338.754,137.455C338.746,137.457 335.921,138.402 334.417,137.602C334.008,137.385 333.777,137.148 333.678,136.924C333.621,136.796 333.61,136.674 333.633,136.566C333.656,136.456 333.716,136.353 333.8,136.27C333.921,136.148 334.092,136.067 334.281,136.055C334.598,136.033 334.793,136.165 334.989,136.298C335.355,136.546 335.729,136.799 336.561,136.64C336.851,136.585 337.232,136.547 337.652,136.506C339.011,136.372 340.748,136.2 341.684,135.238L341.792,134.997C341.792,134.991 341.94,132.926 342.028,131.103" style="fill:rgb(120,79,46);fill-rule:nonzero;"/>
    </g>
    <g transform="matrix(1,0,0,1,-295.757,-93.3377)">
        <path d="M341.672,129.649C342.077,129.757 347.121,132.008 344.726,137.557C342.33,143.106 335.217,144.049 334.745,142.694C334.274,141.34 339.006,140.519 339.209,139.567C339.209,139.567 339.301,139.124 338.006,139.756C336.712,140.389 334.006,140.646 333.514,140.025C333.021,139.404 332.546,138.177 334.128,138.095C334.128,138.095 337.784,139.175 338.871,136.94C338.871,136.94 335.888,137.939 334.238,137.062C332.587,136.183 333.264,134.862 334.256,134.795C335.247,134.728 335.253,135.622 336.489,135.387C337.725,135.151 340.292,135.241 341.411,134.092C341.411,134.092 341.591,131.561 341.672,129.649" style="fill:rgb(255,214,176);"/>
    </g>
</svg>
